<svg width="1728" height="647" viewBox="0 0 1728 647" fill="none" xmlns="http://www.w3.org/2000/svg">
<path d="M-41.1528 206.244C79.0429 196.186 163.872 164.197 219.464 136.502C275.68 108.494 316.167 77.7709 390.15 61.2529C471.748 42.8996 525.065 51.1219 546.153 55.7469C575.389 62.1706 573.572 66.5387 621.401 81.4416C713.278 110.073 730.732 97.3356 771.898 116.313C840.154 147.77 819.8 195.507 891.194 248.457C942.896 286.815 1028.5 317.337 1105.93 296.175C1178.85 276.244 1187.05 226.194 1263.77 219.091C1295.28 216.173 1321.49 222.652 1373.89 235.609C1441.04 252.127 1486.13 272.5 1504.19 279.657C1557.69 300.892 1644.05 314.253 1785 272.316" stroke="url(#paint0_radial_106_31)" stroke-opacity="0.08" stroke-miterlimit="10"/>
<path d="M-41.9603 222.432C74.3078 213.751 161.229 184.789 221.868 156.084C271.129 132.445 308.698 106.531 360.472 88.0121C371.796 83.9743 383.726 80.0651 396.573 76.6881C477.53 55.4349 530.644 58.9404 552.815 61.0878C582.547 63.9509 582.547 67.2178 629.421 81.6985C662.457 91.8846 685.986 97.7026 704.211 101.52C735.192 107.999 750.7 108.439 775.147 120.901C784.268 125.513 792.829 131.16 800.658 137.731C836.869 168.106 835.327 206.611 895.397 247.429C947.686 282.961 1032.72 309.83 1108.83 288.816C1114.86 287.147 1120.8 285.175 1126.63 282.906C1185.47 259.983 1198.69 219.66 1266.12 213.328C1273.22 212.651 1280.36 212.449 1287.5 212.723C1311.47 213.567 1336.24 219.55 1375.48 229.241C1440.49 245.392 1484.89 265.378 1504.8 273.289C1519.39 279.029 1534.43 283.535 1549.77 286.76C1602.84 298.066 1677.87 299.24 1783.42 270.389" stroke="url(#paint1_radial_106_31)" stroke-opacity="0.08" stroke-miterlimit="10"/>
<path d="M-42.7678 240.051C69.5543 232.71 158.66 207.015 224.273 176.952C276.378 153.093 315.69 125.838 366.511 106.384C378.11 101.924 390.131 97.409 403.034 93.5364C483.348 69.3651 536.187 66.4469 559.532 67.8418C589.613 69.6771 591.614 69.3284 637.46 83.3687C669.56 93.2244 692.997 99.8867 710.873 104.567C740.991 112.404 755.472 113.982 778.34 126.921C787.054 131.904 795.244 137.752 802.787 144.375C837.768 174.548 839.493 210.741 899.637 247.888C952.513 280.575 1036.97 303.792 1111.76 282.924C1118.1 281.089 1123.95 279.254 1129.44 277.051C1190.13 253.706 1203.57 215.256 1268.52 209.144C1275.57 208.45 1282.66 208.223 1289.74 208.465C1314.11 209.181 1338.85 214.999 1377.13 224.597C1440.01 240.308 1483.68 259.964 1505.46 268.443C1519.93 274.131 1534.83 278.649 1550.02 281.952C1602.62 293.514 1677.3 295.955 1781.81 269.967" stroke="url(#paint2_radial_106_31)" stroke-opacity="0.08" stroke-miterlimit="10"/>
<path d="M-43.557 258.863C64.8192 252.935 156.053 230.269 226.695 199.105C281.572 174.878 322.683 146.376 372.512 125.967C384.405 121.085 396.537 115.983 409.457 111.596C489.129 84.5433 541.601 78.8721 566.213 75.7888C596.661 71.9896 600.644 72.632 645.481 86.2318C676.681 95.7205 700.027 103.245 717.646 108.788C746.883 117.965 760.372 120.718 781.662 134.116C789.901 139.478 797.674 145.526 804.897 152.194C838.649 182.146 843.751 216.008 903.822 249.466C957.358 279.309 1041.18 298.892 1114.65 278.152C1120.92 276.317 1126.74 274.482 1132.19 272.334C1194.7 248.475 1208.41 211.97 1270.85 205.895C1277.85 205.184 1284.89 204.933 1291.92 205.143C1316.7 205.712 1341.47 211.401 1378.75 220.817C1439.46 236.068 1482.43 255.376 1506.07 264.571C1520.45 270.173 1535.23 274.694 1550.28 278.097C1602.4 289.917 1676.73 293.643 1780.17 270.499" stroke="url(#paint3_radial_106_31)" stroke-opacity="0.08" stroke-miterlimit="10"/>
<path d="M-44.3646 277.712C60.084 273.16 153.411 253.559 229.099 221.275C286.766 196.664 329.657 166.895 378.532 145.568C390.7 140.264 402.924 134.556 415.899 129.674C494.929 99.7949 546.923 89.6272 572.912 83.7908C603.617 76.89 609.618 75.9906 653.519 89.15C683.894 98.3266 707.038 106.659 724.363 113.009C752.719 123.507 765.199 127.472 784.929 141.31C792.679 147.04 800.037 153.281 806.953 159.994C839.493 189.689 847.973 221.239 907.988 251.118C962.185 278.097 1045.34 294.065 1117.51 273.472C1123.71 271.637 1129.49 269.802 1134.93 267.691C1199.27 243.336 1213.22 208.96 1273.16 202.812C1280.11 202.11 1287.1 201.835 1294.09 201.986C1319.23 202.427 1343.93 207.969 1380.35 217.201C1438.93 232.03 1481.18 251.008 1506.67 260.864C1520.95 266.411 1535.6 270.943 1550.52 274.427C1602.18 286.521 1676.16 291.495 1778.56 271.233" stroke="url(#paint4_radial_106_31)" stroke-opacity="0.08" stroke-miterlimit="10"/>
<path d="M-45.1354 289.862C55.3856 286.687 150.823 270.169 231.541 236.766C291.978 211.75 336.668 180.66 384.589 158.489C397.014 152.744 409.366 146.504 422.378 141.071C500.728 108.366 552.301 93.7934 579.592 85.0755C610.573 75.2015 618.703 72.6136 661.54 85.3508C685.196 92.4103 708.416 100.855 731.08 110.642C758.61 122.443 770.044 127.655 788.159 141.842C796.069 148.064 802.346 154.69 809.137 161.132C840.466 190.497 852.341 219.862 912.246 246.071C967.159 270.169 1049.62 282.539 1120.46 262.093C1126.61 260.258 1132.36 258.423 1137.75 256.349C1203.95 231.553 1218.14 198.995 1275.59 193.03C1282.48 192.326 1289.41 192.032 1296.34 192.149C1321.89 192.497 1346.56 197.838 1381.98 206.831C1438.42 221.184 1479.97 239.867 1507.3 250.384C1521.48 255.872 1536.02 260.409 1550.81 263.965C1602 276.335 1675.61 282.594 1776.96 265.177" stroke="url(#paint5_radial_106_31)" stroke-opacity="0.08" stroke-miterlimit="10"/>
<path d="M-45.9796 298.525C50.5954 296.689 148.143 283.236 233.908 248.75C297.117 223.331 343.569 190.882 390.572 167.996C403.272 161.792 415.716 155.002 428.783 149.055C506.546 113.578 557.715 94.6193 586.291 82.9833C617.492 70.2277 627.733 65.8596 669.579 78.1563C693.025 85.0475 715.842 93.926 737.779 104.695C764.41 117.763 774.871 124.26 791.408 138.943C798.749 145.421 804.53 152.322 811.266 158.837C841.402 188.019 856.69 214.852 916.449 237.592C972.114 258.771 1053.86 267.581 1123.38 247.264C1129.46 245.428 1135.15 243.593 1140.54 241.556C1208.6 216.375 1223.08 185.688 1277.95 179.944C1284.8 179.222 1291.68 178.903 1298.56 178.989C1324.48 179.21 1349.15 184.385 1383.6 193.268C1437.88 207.198 1478.72 225.533 1507.92 236.747C1522.01 242.166 1536.42 246.708 1551.07 250.347C1601.8 262.993 1675.06 270.536 1775.36 255.945" stroke="url(#paint6_radial_106_31)" stroke-opacity="0.08" stroke-miterlimit="10"/>
<path d="M-46.7688 307.316C45.8603 306.894 145.482 296.432 236.331 260.864C302.292 235.022 350.488 201.179 396.573 177.466C409.549 170.767 422.121 163.426 435.225 157.002C512.364 118.791 563.166 95.5186 592.972 80.8359C624.595 65.2723 636.763 59.0689 677.599 70.9251C700.876 77.7441 723.315 87.1508 744.497 98.969C770.191 113.266 779.698 121.121 794.675 136.171C801.392 142.925 806.714 150.046 813.377 156.69C842.338 185.56 861.095 210.007 920.67 229.241C977.106 247.466 1058.08 252.733 1126.23 232.581C1132.25 230.746 1137.9 228.91 1143.26 226.892C1213.17 201.197 1227.81 172.437 1280.27 166.729C1287.06 166.007 1293.88 165.664 1300.71 165.702C1327.03 165.702 1351.66 170.804 1385.14 179.54C1437.3 192.993 1477.4 211.034 1508.47 222.891C1522.46 228.263 1536.75 232.822 1551.27 236.545C1601.52 249.393 1674.44 258.221 1773.68 246.53" stroke="url(#paint7_radial_106_31)" stroke-opacity="0.08" stroke-miterlimit="10"/>
<path d="M-47.5763 316.144C41.1252 317.098 142.839 309.665 238.735 273.013C307.468 246.75 357.407 211.493 402.593 187.065C415.808 179.925 428.526 172.089 441.649 165.041C518.182 124.095 568.654 96.5097 599.671 78.7804C631.679 60.4271 645.793 52.3516 685.638 63.7674C708.738 70.5076 730.803 80.3883 751.214 93.1327C776.119 108.678 784.507 117.891 797.923 133.308C804.035 140.356 808.935 147.66 815.506 154.433C843.293 183.009 865.482 205.014 924.873 220.798C982.117 236.013 1062.3 237.812 1129.18 217.788C1135.15 215.953 1140.76 214.118 1146.09 212.154C1217.86 186.074 1232.71 159.15 1282.69 153.552C1289.43 152.827 1296.21 152.46 1302.99 152.451C1329.69 152.285 1354.38 157.277 1386.84 165.83C1436.84 178.843 1476.24 196.572 1509.17 209.089C1523.06 214.425 1537.22 219.013 1551.6 222.836C1601.39 236.013 1673.96 246.052 1772.15 237.225" stroke="url(#paint8_radial_106_31)" stroke-opacity="0.08" stroke-miterlimit="10"/>
<path d="M-48.3839 324.935C36.39 327.211 140.233 322.788 241.176 285.072C312.754 258.368 364.327 221.679 408.65 196.572C422.121 188.937 434.968 180.605 448.128 173.043C524.037 129.417 574.196 97.5374 606.407 76.6697C638.873 55.6185 654.878 45.5975 693.713 56.5728C716.653 63.2897 738.348 73.691 757.95 87.3697C781.992 104.108 789.334 114.753 801.19 130.518C806.696 137.86 811.119 145.329 817.708 152.249C844.357 180.513 870.015 199.967 929.186 212.411C987.237 224.579 1066.62 222.946 1132.19 203.069C1138.08 201.234 1143.66 199.398 1148.97 197.563C1222.6 171.079 1237.67 145.99 1285.13 140.539C1291.83 139.776 1298.57 139.384 1305.32 139.365C1332.41 139.181 1357 143.898 1388.59 152.212C1436.43 164.784 1475.12 182.201 1509.92 195.379C1522.49 200.151 1536.42 204.868 1552 209.089C1601.32 222.523 1673.54 233.847 1770.67 227.864" stroke="url(#paint9_radial_106_31)" stroke-opacity="0.08" stroke-miterlimit="10"/>
<path d="M-49.1914 333.469C31.5631 337.14 137.517 335.745 243.544 296.983C317.801 269.838 371.154 231.682 414.633 205.914C428.343 197.783 441.337 188.974 454.533 180.861C529.892 134.556 579.776 98.4 613.05 74.4123C645.976 50.553 663.852 38.6967 701.697 49.2315C724.502 55.9312 745.853 66.8371 764.649 81.3865C787.866 99.3361 794.014 111.431 804.42 127.508C809.321 135.143 813.303 142.797 819.745 149.844C845.256 177.76 874.365 194.773 933.297 203.803C992.23 212.833 1070.75 207.841 1135 188.111C1140.84 186.276 1146.38 184.44 1151.65 182.605C1227.15 155.717 1242.44 132.464 1287.46 127.141C1294.1 126.366 1300.77 125.956 1307.45 125.912C1334.98 125.563 1359.5 130.151 1390.04 138.355C1435.76 150.468 1473.71 167.592 1510.38 181.412C1522.9 186.147 1536.72 190.846 1552.12 195.159C1600.95 208.85 1672.82 221.441 1768.9 218.339" stroke="url(#paint10_radial_106_31)" stroke-opacity="0.08" stroke-miterlimit="10"/>
<path d="M-49.9807 341.893C26.9013 346.977 134.855 348.537 245.966 308.747C323.05 281.217 378 241.501 420.635 215.145C434.601 206.501 447.742 197.233 461.012 188.57C535.783 139.566 585.41 99.1892 619.731 71.9713C653.189 45.5058 672.956 31.594 709.662 41.7067C734.035 48.424 756.169 62.3174 771.311 75.2198C793.72 94.344 798.841 107.925 807.632 124.315C811.89 132.244 815.451 140.08 821.801 147.275C846.192 174.805 878.696 189.286 937.427 194.993C997.13 200.848 1074.89 192.553 1137.83 172.97C1143.59 171.134 1149.1 169.299 1154.34 167.464C1231.7 140.154 1247.19 118.736 1289.68 113.56C1296.27 112.773 1302.89 112.338 1309.52 112.257C1337.4 111.725 1361.92 116.203 1391.6 124.242C1435.17 135.914 1472.35 152.726 1510.89 167.207C1523.36 171.887 1537.07 176.603 1552.26 180.972C1600.64 194.938 1672.16 208.795 1767.18 208.502" stroke="url(#paint11_radial_106_31)" stroke-opacity="0.08" stroke-miterlimit="10"/>
<path d="M-50.7881 350.207C22.1662 356.686 132.121 360.999 248.371 320.383C328.079 292.193 384.827 251.191 426.654 224.194C440.842 215.017 454.184 205.308 467.417 196.095C541.674 144.504 591.063 99.7582 626.43 69.4569C660.439 40.3118 681.894 24.4546 717.756 34.1084C741.267 40.4954 763.291 55.1229 778.083 68.9797C799.685 89.2785 803.576 104.328 810.936 121.048C814.606 129.27 817.708 137.254 823.985 144.595C847.257 171.832 883.211 183.651 941.721 186.202C1002.29 188.827 1079.21 177.283 1140.82 157.828C1146.53 156.005 1151.99 154.17 1157.21 152.322C1236.46 124.645 1252.15 105.026 1292.14 99.9968C1298.67 99.1889 1305.24 98.7294 1311.82 98.6203C1340.08 97.9412 1364.6 102.291 1393.32 110.146C1434.73 121.36 1471.23 137.951 1511.66 153.02C1524.07 157.681 1537.65 162.361 1552.68 166.803C1600.59 181.045 1671.76 196.168 1765.73 198.774" stroke="url(#paint12_radial_106_31)" stroke-opacity="0.08" stroke-miterlimit="10"/>
<path d="M-51.5957 358.393C17.4127 366.23 129.478 373.571 250.775 331.891C333.254 303.278 391.673 260.698 432.674 233.168C447.082 223.496 460.571 213.31 473.859 203.546C547.584 149.33 596.826 100.29 633.111 66.7956C667.707 34.9526 690.923 17.0765 725.703 26.3082C748.369 32.3465 770.301 47.7266 784.709 62.5744C805.54 84.0478 808.201 100.602 814.074 117.634C817.047 126.169 819.819 134.317 825.985 141.787C848.285 168.657 887.671 179.669 945.943 177.191C1007.21 174.585 1083.45 161.792 1143.75 142.485C1149.41 140.662 1154.83 138.826 1160.02 136.979C1241.17 109.045 1257.03 91.0954 1294.53 86.2134C1301.01 85.399 1307.52 84.9212 1314.05 84.7819C1342.7 83.9743 1367.28 88.1589 1394.96 95.7939C1434.14 106.659 1470 123.049 1512.29 138.667C1524.64 143.292 1538.11 147.972 1552.94 152.487C1600.38 167.005 1671.21 183.394 1764.11 188.864" stroke="url(#paint13_radial_106_31)" stroke-opacity="0.08" stroke-miterlimit="10"/>
<path d="M-52.4766 366.487C12.6041 375.664 126.762 386.07 253.106 343.307C338.357 314.272 398.335 270.132 438.602 241.978C453.285 231.774 466.922 221.165 480.209 210.777C553.439 153.882 602.406 100.658 639.736 63.9509C674.993 29.4467 700.008 9.6618 733.815 18.4347C755.619 24.1242 777.459 40.2384 791.5 56.0773C811.56 78.6886 812.936 96.7483 817.433 114.074C819.745 122.92 822.149 131.216 828.224 138.851C849.331 165.353 891.984 171.887 950.145 168.069C1012.22 164.05 1087.65 146.192 1146.64 127.031C1152.14 125.196 1157.65 123.361 1162.77 121.525C1245.78 93.1694 1261.88 77.0368 1296.88 72.32C1303.3 71.4833 1309.76 70.981 1316.24 70.815C1345.27 69.8607 1369.76 73.9167 1396.55 81.4049C1433.68 91.7378 1468.75 107.724 1512.89 124.095C1525.21 128.683 1538.59 133.271 1553.27 137.951C1600.24 152.634 1670.73 170.382 1762.5 178.714" stroke="url(#paint14_radial_106_31)" stroke-opacity="0.08" stroke-miterlimit="10"/>
<path d="M-53.1924 374.489C7.94238 385.079 124.174 398.477 255.602 354.649C343.698 325.192 405.181 279.4 444.641 250.751C459.47 239.996 473.382 228.984 486.67 218.082C559.514 158.764 608.169 100.988 646.343 61.1245C682.169 23.8489 708.836 2.15527 741.78 10.5244C762.722 15.8652 784.507 32.7135 798.162 49.5252C817.469 73.3845 817.525 92.839 820.645 110.495C822.241 119.672 824.315 128.096 830.28 135.877C850.322 162.013 896.352 165.757 954.293 158.911C1017.12 151.57 1091.83 130.555 1149.48 111.523C1154.99 109.687 1160.36 107.852 1165.48 106.163C1250.37 77.3855 1266.65 63.0148 1299.17 58.4449C1305.59 57.6201 1312.05 57.13 1318.51 56.9766C1345.44 55.9626 1372.35 59.3727 1398.17 67.0709C1433.15 76.9634 1467.51 92.6371 1513.52 109.669C1525.78 114.202 1539.03 118.846 1553.47 123.544C1621 145.152 1690.43 160.277 1760.83 168.712" stroke="url(#paint15_radial_106_31)" stroke-opacity="0.08" stroke-miterlimit="10"/>
<path d="M-54 382.436C3.20722 394.402 121.531 410.829 258.006 365.918C348.8 336.039 411.917 288.706 450.716 259.469C622.925 129.582 677.434 -15.4822 749.874 2.52236C769.953 7.51446 791.683 25.0969 804.934 42.8996C833.235 80.891 815.396 109.706 832.464 132.831C874.31 189.543 1062.54 126.205 1168.33 90.6183C1271.47 55.9121 1275.29 44.735 1320.66 42.8996C1399.86 39.6511 1441.02 71.4574 1553.75 108.972C1620.77 131.169 1689.53 147.745 1759.31 158.526" stroke="url(#paint16_radial_106_31)" stroke-opacity="0.08" stroke-miterlimit="10"/>
<path d="M-54 387.685C4.73054 400.771 119.384 415.766 249.857 372.782C339.917 343.031 400.354 295.239 441.998 264.498C608.352 141.842 660.237 9.00107 734.035 20.8573C762.868 25.4823 792.142 34.7508 811.468 48.9562C849.441 76.89 835.327 101.869 857.351 124.205C905.565 173.135 1081.13 118.203 1181.86 85.5527C1279.97 53.6363 1283.94 44.6065 1331.89 46.4418C1411.58 49.4885 1450.88 77.6425 1557.07 113.652C1623.32 136.106 1691.54 152.273 1760.83 161.939" stroke="url(#paint17_radial_106_31)" stroke-opacity="0.08" stroke-miterlimit="10"/>
<path d="M-54 393.154C43.9446 415.701 146.184 411.1 241.708 379.848C331.034 350.244 388.681 301.957 433.28 269.728C593.559 153.992 643.737 31.3921 718.215 39.3941C756.004 43.4686 791.536 44.4964 818.002 55.233C863.408 73.5864 854.561 93.9585 882.238 115.799C935.114 157.479 1099.72 110.403 1195.4 80.6891C1288.32 51.5624 1292.45 44.4964 1343.14 50.1859C1423.13 59.1423 1460.73 84.2129 1560.39 118.552C1625.86 141.247 1693.52 157.007 1762.28 165.573" stroke="url(#paint18_radial_106_31)" stroke-opacity="0.08" stroke-miterlimit="10"/>
<path d="M-54 402.881C41.0926 425.699 140.655 421.645 233.578 391.172C322.151 361.697 377.027 312.914 424.562 279.217C578.436 170.162 627.77 70.76 702.376 62.189C749.048 56.8298 790.325 59.0322 824.554 65.7495C876.273 75.8805 873.263 90.3246 907.144 111.633C963.231 146.908 1118.35 107.044 1208.93 80.0835C1296.8 53.93 1300.9 48.479 1354.38 58.1696C1434.62 72.7054 1470.57 95.0047 1563.73 127.692C1628.42 150.655 1695.55 166.016 1763.78 173.465" stroke="url(#paint19_radial_106_31)" stroke-opacity="0.08" stroke-miterlimit="10"/>
<path d="M-54 417.693C38.2333 440.768 135.117 437.243 225.429 407.525C313.268 378.16 365.354 328.881 415.844 293.734C563.203 191.158 612.023 101.245 686.555 90.0126C741.927 81.6802 790.82 68.943 831.088 81.2948C886.496 98.2899 888.57 99.4646 932.031 112.495C984.319 152.157 1136.96 108.66 1222.47 84.5066C1305.24 61.1979 1309.32 57.3437 1365.63 71.2005C1446.07 91.0037 1480.39 110.899 1567.05 141.861C1630.96 165.084 1697.57 180.041 1765.27 186.367" stroke="url(#paint20_radial_106_31)" stroke-opacity="0.08" stroke-miterlimit="10"/>
<path d="M-54 432.852C35.3697 456.201 129.579 453.257 217.317 424.373C304.421 395.155 353.7 345.325 407.163 308.747C547.86 212.466 596.129 131.216 670.643 118.332C734.88 107.246 788.324 89.6639 837.658 97.3539C901.271 107.265 906.905 103.374 956.954 113.872C1011.81 149.165 1155.56 110.623 1235.92 89.4253C1313.6 68.9613 1317.67 66.5203 1376.79 84.7268C1457.54 109.541 1490.12 127.325 1570.3 156.525C1633.43 180.011 1699.53 194.565 1766.68 199.765" stroke="url(#paint21_radial_106_31)" stroke-opacity="0.08" stroke-miterlimit="10"/>
<path d="M-54 448.306C32.4856 471.881 123.996 469.487 209.131 441.423C295.502 412.333 341.936 361.954 398.409 323.962C532.388 233.829 580.106 160.801 654.896 146.853C727.814 133.253 786.783 122.094 844.155 113.597C914.999 103.098 925.166 107.448 981.805 115.432C1039.32 146.467 1174.15 112.862 1249.54 94.5458C1322.11 76.9267 1326.19 75.7888 1388.11 98.4551C1469.01 128.077 1499.97 144.026 1573.63 171.41C1635.98 195.149 1701.57 209.301 1768.17 213.384" stroke="url(#paint22_radial_106_31)" stroke-opacity="0.08" stroke-miterlimit="10"/>
<path d="M-54 463.961C14.3293 483.728 106.591 490.39 201.001 458.694C286.692 429.916 330.208 378.765 389.691 339.397C516.824 255.266 564.047 190.185 639.057 175.594C720.839 159.7 785.883 144.155 850.707 130.06C928.342 113.156 945.227 101.355 1006.71 117.212C1070.41 133.638 1192.74 115.377 1263.07 99.8867C1330.54 85.0939 1334.65 85.204 1399.34 112.385C1480.65 146.651 1509.76 160.985 1577.04 186.496C1618.87 202.353 1681.96 223.092 1769.75 227.204" stroke="url(#paint23_radial_106_31)" stroke-opacity="0.08" stroke-miterlimit="10"/>
<path d="M-54 479.892C15.926 500.741 104.444 506.009 192.852 476.221C277.809 447.59 318.443 395.779 380.973 355.089C501.169 276.849 547.713 219.532 623.237 204.592C713.902 186.643 785.149 166.583 857.241 146.779C941.868 123.526 962.993 105.833 1031.6 119.249C1096.99 132.097 1211.31 118.001 1276.61 105.484C1339.01 93.5181 1343.27 94.6193 1410.59 126.591C1492.3 165.371 1519.5 178.274 1580.36 201.839C1621.58 217.807 1683.74 238.546 1771.23 241.299" stroke="url(#paint24_radial_106_31)" stroke-opacity="0.08" stroke-miterlimit="10"/>
<path d="M-54 496.006C17.5778 518.03 102.297 521.811 184.703 493.951C268.926 465.466 306.642 412.976 372.255 370.983C485.458 298.525 531.378 248.897 607.398 233.792C707.038 213.989 784.507 189.267 863.775 163.701C955.541 134.116 980.777 110.935 1056.48 121.489C1123.66 130.849 1229.89 120.92 1290.14 111.284C1347.37 102.107 1351.9 104.218 1421.82 140.998C1504.05 184.22 1529.23 195.819 1583.68 217.385C1624.32 233.48 1685.51 254.293 1772.72 255.578" stroke="url(#paint25_radial_106_31)" stroke-opacity="0.08" stroke-miterlimit="10"/>
<path d="M-54 512.359C19.1012 535.429 100.168 537.833 176.554 511.9C260.043 483.544 294.804 430.32 363.537 387.098C469.675 320.328 513.722 269.435 591.577 263.213C701.954 254.385 783.92 212.191 870.309 180.843C969.288 144.944 1002.45 98.2532 1081.37 123.948C1147.3 145.476 1248.39 123.948 1303.68 117.304C1355.77 110.972 1360.58 113.964 1433.08 155.607C1515.87 203.197 1538.92 213.659 1587 233.15C1627.03 249.393 1687.29 270.224 1774.21 270.095" stroke="url(#paint26_radial_106_31)" stroke-opacity="0.08" stroke-miterlimit="10"/>
<path d="M-54 529.244C20.6979 553.434 98.0203 554.351 168.424 530.492C251.16 502.265 282.93 448.233 354.82 403.854C453.927 342.683 497.37 300.764 575.738 293.276C695.035 281.841 783.406 235.775 876.861 198.627C983.126 156.415 1018.86 106.659 1106.28 127.05C1175.62 143.237 1267.02 127.747 1317.21 123.966C1364.18 120.424 1369.41 124.278 1444.31 170.877C1527.76 222.78 1548.61 232.196 1590.35 249.558C1629.75 265.966 1689.07 286.778 1775.71 285.237" stroke="url(#paint27_radial_106_31)" stroke-opacity="0.08" stroke-miterlimit="10"/>
<path d="M-54 547.194C22.2763 572.503 95.8546 572.007 160.275 549.947C242.277 521.848 271 466.935 346.102 421.473C437.978 365.845 480.998 332.955 559.918 324.201C688.17 309.977 782.929 260.24 883.394 217.293C997.038 168.712 1035.73 116.937 1131.16 131.032C1203.73 141.751 1285.55 132.317 1330.76 131.491C1372.56 130.72 1378.27 135.419 1455.56 187.01C1539.71 243.189 1558.34 251.669 1593.67 266.847C1632.45 283.475 1690.94 304.214 1777.2 301.259" stroke="url(#paint28_radial_106_31)" stroke-opacity="0.08" stroke-miterlimit="10"/>
<path d="M-54 565.455C23.873 591.884 93.7073 589.938 152.126 569.823C233.394 541.834 259.015 485.93 337.384 439.515C422.084 389.337 464.572 365.532 544.079 355.548C681.215 338.333 782.488 285.108 889.928 236.362C1011.06 181.43 1053.02 128.389 1156.05 135.419C1231.67 140.576 1304.11 137.254 1344.28 139.438C1380.92 141.402 1387.19 146.908 1466.79 203.565C1551.75 264.002 1567.88 271.71 1596.99 284.558C1635.11 301.461 1692.61 322.09 1778.69 317.704" stroke="url(#paint29_radial_106_31)" stroke-opacity="0.08" stroke-miterlimit="10"/>
<path d="M-54 585.332C25.4698 612.862 91.5049 609.375 143.977 591.297C224.456 563.253 246.939 506.376 328.666 459.153C406.154 414.371 448.128 399.688 528.258 388.492C674.204 368.102 782.084 311.592 896.389 257.028C1024.86 195.746 1071.09 149.771 1180.86 141.402C1259.09 135.455 1322.57 143.788 1357.75 148.982C1389.27 153.644 1396.11 159.994 1477.97 221.698C1563.75 286.411 1577.41 293.276 1600.24 303.829C1637.64 321.136 1694.32 341.526 1780.1 335.727" stroke="url(#paint30_radial_106_31)" stroke-opacity="0.08" stroke-miterlimit="10"/>
<path d="M-54 605.007C27.0481 633.656 89.3576 628.737 135.846 612.586C215.573 584.671 234.752 526.436 319.948 478.607C390.205 439.166 431.646 433.642 512.419 421.253C667.156 397.522 781.699 337.874 903.014 277.528C1038.99 209.86 1089.58 160.067 1205.84 147.22C1286.6 138.337 1341.24 150.028 1371.35 158.342C1397.76 165.683 1405.23 172.841 1489.27 239.665C1575.97 308.601 1587.02 314.786 1603.65 322.953C1640.21 340.902 1696.17 360.779 1781.68 353.566" stroke="url(#paint31_radial_106_31)" stroke-opacity="0.08" stroke-miterlimit="10"/>
<path d="M-54 624.7C28.5898 654.45 87.3203 648.118 127.698 633.876C206.617 606.089 222.437 546.202 311.231 498.062C374.256 463.888 415.147 467.595 496.599 454.014C660.035 426.759 781.332 364.083 909.548 298.011C1053.03 223.973 1108.11 170.29 1230.73 153.019C1314.33 141.255 1359.88 156.176 1384.9 167.702C1406.24 177.54 1414.26 185.67 1500.52 257.633C1588.16 330.808 1596.51 336.369 1606.97 342.059C1642.34 361.311 1697.93 380.05 1783.16 371.424" stroke="url(#paint32_radial_106_31)" stroke-opacity="0.08" stroke-miterlimit="10"/>
<defs>
<radialGradient id="paint0_radial_106_31" cx="0" cy="0" r="1" gradientUnits="userSpaceOnUse" gradientTransform="translate(871.924 176.482) rotate(90) scale(126.628 913.076)">
<stop offset="0.697917" stop-color="white"/>
<stop offset="1" stop-color="white" stop-opacity="0"/>
</radialGradient>
<radialGradient id="paint1_radial_106_31" cx="0" cy="0" r="1" gradientUnits="userSpaceOnUse" gradientTransform="translate(870.731 177.834) rotate(90) scale(118.381 912.691)">
<stop offset="0.697917" stop-color="white"/>
<stop offset="1" stop-color="white" stop-opacity="0"/>
</radialGradient>
<radialGradient id="paint2_radial_106_31" cx="0" cy="0" r="1" gradientUnits="userSpaceOnUse" gradientTransform="translate(869.519 179.212) rotate(90) scale(111.659 912.287)">
<stop offset="0.697917" stop-color="white"/>
<stop offset="1" stop-color="white" stop-opacity="0"/>
</radialGradient>
<radialGradient id="paint3_radial_106_31" cx="0" cy="0" r="1" gradientUnits="userSpaceOnUse" gradientTransform="translate(868.308 180.617) rotate(90) scale(106.833 911.865)">
<stop offset="0.697917" stop-color="white"/>
<stop offset="1" stop-color="white" stop-opacity="0"/>
</radialGradient>
<radialGradient id="paint4_radial_106_31" cx="0" cy="0" r="1" gradientUnits="userSpaceOnUse" gradientTransform="translate(867.097 181.913) rotate(90) scale(103.06 911.461)">
<stop offset="0.697917" stop-color="white"/>
<stop offset="1" stop-color="white" stop-opacity="0"/>
</radialGradient>
<radialGradient id="paint5_radial_106_31" cx="0" cy="0" r="1" gradientUnits="userSpaceOnUse" gradientTransform="translate(865.913 183.287) rotate(90) scale(106.575 911.048)">
<stop offset="0.697917" stop-color="white"/>
<stop offset="1" stop-color="white" stop-opacity="0"/>
</radialGradient>
<radialGradient id="paint6_radial_106_31" cx="0" cy="0" r="1" gradientUnits="userSpaceOnUse" gradientTransform="translate(864.692 184.695) rotate(90) scale(113.83 910.672)">
<stop offset="0.697917" stop-color="white"/>
<stop offset="1" stop-color="white" stop-opacity="0"/>
</radialGradient>
<radialGradient id="paint7_radial_106_31" cx="0" cy="0" r="1" gradientUnits="userSpaceOnUse" gradientTransform="translate(863.454 186.026) rotate(90) scale(121.29 910.222)">
<stop offset="0.697917" stop-color="white"/>
<stop offset="1" stop-color="white" stop-opacity="0"/>
</radialGradient>
<radialGradient id="paint8_radial_106_31" cx="0" cy="0" r="1" gradientUnits="userSpaceOnUse" gradientTransform="translate(862.288 187.358) rotate(90) scale(128.864 909.865)">
<stop offset="0.697917" stop-color="white"/>
<stop offset="1" stop-color="white" stop-opacity="0"/>
</radialGradient>
<radialGradient id="paint9_radial_106_31" cx="0" cy="0" r="1" gradientUnits="userSpaceOnUse" gradientTransform="translate(861.141 188.749) rotate(90) scale(136.676 909.525)">
<stop offset="0.697917" stop-color="white"/>
<stop offset="1" stop-color="white" stop-opacity="0"/>
</radialGradient>
<radialGradient id="paint10_radial_106_31" cx="0" cy="0" r="1" gradientUnits="userSpaceOnUse" gradientTransform="translate(859.856 190.09) rotate(90) scale(144.723 909.048)">
<stop offset="0.697917" stop-color="white"/>
<stop offset="1" stop-color="white" stop-opacity="0"/>
</radialGradient>
<radialGradient id="paint11_radial_106_31" cx="0" cy="0" r="1" gradientUnits="userSpaceOnUse" gradientTransform="translate(858.599 191.452) rotate(90) scale(153.054 908.58)">
<stop offset="0.697917" stop-color="white"/>
<stop offset="1" stop-color="white" stop-opacity="0"/>
</radialGradient>
<radialGradient id="paint12_radial_106_31" cx="0" cy="0" r="1" gradientUnits="userSpaceOnUse" gradientTransform="translate(857.471 192.832) rotate(90) scale(161.552 908.259)">
<stop offset="0.697917" stop-color="white"/>
<stop offset="1" stop-color="white" stop-opacity="0"/>
</radialGradient>
<radialGradient id="paint13_radial_106_31" cx="0" cy="0" r="1" gradientUnits="userSpaceOnUse" gradientTransform="translate(856.259 194.169) rotate(90) scale(170.288 907.855)">
<stop offset="0.697917" stop-color="white"/>
<stop offset="1" stop-color="white" stop-opacity="0"/>
</radialGradient>
<radialGradient id="paint14_radial_106_31" cx="0" cy="0" r="1" gradientUnits="userSpaceOnUse" gradientTransform="translate(855.011 195.521) rotate(90) scale(179.161 907.488)">
<stop offset="0.697917" stop-color="white"/>
<stop offset="1" stop-color="white" stop-opacity="0"/>
</radialGradient>
<radialGradient id="paint15_radial_106_31" cx="0" cy="0" r="1" gradientUnits="userSpaceOnUse" gradientTransform="translate(853.818 196.892) rotate(90) scale(188.156 907.011)">
<stop offset="0.697917" stop-color="white"/>
<stop offset="1" stop-color="white" stop-opacity="0"/>
</radialGradient>
<radialGradient id="paint16_radial_106_31" cx="0" cy="0" r="1" gradientUnits="userSpaceOnUse" gradientTransform="translate(852.653 198.253) rotate(90) scale(197.253 906.653)">
<stop offset="0.697917" stop-color="white"/>
<stop offset="1" stop-color="white" stop-opacity="0"/>
</radialGradient>
<radialGradient id="paint17_radial_106_31" cx="0" cy="0" r="1" gradientUnits="userSpaceOnUse" gradientTransform="translate(853.414 210.689) rotate(90) scale(190.571 907.414)">
<stop offset="0.697917" stop-color="white"/>
<stop offset="1" stop-color="white" stop-opacity="0"/>
</radialGradient>
<radialGradient id="paint18_radial_106_31" cx="0" cy="0" r="1" gradientUnits="userSpaceOnUse" gradientTransform="translate(854.139 223.128) rotate(90) scale(184.106 908.139)">
<stop offset="0.697917" stop-color="white"/>
<stop offset="1" stop-color="white" stop-opacity="0"/>
</radialGradient>
<radialGradient id="paint19_radial_106_31" cx="0" cy="0" r="1" gradientUnits="userSpaceOnUse" gradientTransform="translate(854.892 235.567) rotate(90) scale(181.881 908.892)">
<stop offset="0.697917" stop-color="white"/>
<stop offset="1" stop-color="white" stop-opacity="0"/>
</radialGradient>
<radialGradient id="paint20_radial_106_31" cx="0" cy="0" r="1" gradientUnits="userSpaceOnUse" gradientTransform="translate(855.635 247.955) rotate(90) scale(184.784 909.635)">
<stop offset="0.697917" stop-color="white"/>
<stop offset="1" stop-color="white" stop-opacity="0"/>
</radialGradient>
<radialGradient id="paint21_radial_106_31" cx="0" cy="0" r="1" gradientUnits="userSpaceOnUse" gradientTransform="translate(856.342 260.443) rotate(90) scale(187.991 910.342)">
<stop offset="0.697917" stop-color="white"/>
<stop offset="1" stop-color="white" stop-opacity="0"/>
</radialGradient>
<radialGradient id="paint22_radial_106_31" cx="0" cy="0" r="1" gradientUnits="userSpaceOnUse" gradientTransform="translate(857.085 272.88) rotate(90) scale(191.505 911.085)">
<stop offset="0.697917" stop-color="white"/>
<stop offset="1" stop-color="white" stop-opacity="0"/>
</radialGradient>
<radialGradient id="paint23_radial_106_31" cx="0" cy="0" r="1" gradientUnits="userSpaceOnUse" gradientTransform="translate(857.874 285.332) rotate(90) scale(195.297 911.874)">
<stop offset="0.697917" stop-color="white"/>
<stop offset="1" stop-color="white" stop-opacity="0"/>
</radialGradient>
<radialGradient id="paint24_radial_106_31" cx="0" cy="0" r="1" gradientUnits="userSpaceOnUse" gradientTransform="translate(858.617 297.76) rotate(90) scale(199.29 912.617)">
<stop offset="0.697917" stop-color="white"/>
<stop offset="1" stop-color="white" stop-opacity="0"/>
</radialGradient>
<radialGradient id="paint25_radial_106_31" cx="0" cy="0" r="1" gradientUnits="userSpaceOnUse" gradientTransform="translate(859.361 310.195) rotate(90) scale(203.495 913.361)">
<stop offset="0.697917" stop-color="white"/>
<stop offset="1" stop-color="white" stop-opacity="0"/>
</radialGradient>
<radialGradient id="paint26_radial_106_31" cx="0" cy="0" r="1" gradientUnits="userSpaceOnUse" gradientTransform="translate(860.104 322.637) rotate(90) scale(207.876 914.104)">
<stop offset="0.697917" stop-color="white"/>
<stop offset="1" stop-color="white" stop-opacity="0"/>
</radialGradient>
<radialGradient id="paint27_radial_106_31" cx="0" cy="0" r="1" gradientUnits="userSpaceOnUse" gradientTransform="translate(860.857 335.113) rotate(90) scale(212.782 914.857)">
<stop offset="0.697917" stop-color="white"/>
<stop offset="1" stop-color="white" stop-opacity="0"/>
</radialGradient>
<radialGradient id="paint28_radial_106_31" cx="0" cy="0" r="1" gradientUnits="userSpaceOnUse" gradientTransform="translate(861.6 347.511) rotate(90) scale(218.833 915.6)">
<stop offset="0.697917" stop-color="white"/>
<stop offset="1" stop-color="white" stop-opacity="0"/>
</radialGradient>
<radialGradient id="paint29_radial_106_31" cx="0" cy="0" r="1" gradientUnits="userSpaceOnUse" gradientTransform="translate(862.343 359.947) rotate(90) scale(225.158 916.343)">
<stop offset="0.697917" stop-color="white"/>
<stop offset="1" stop-color="white" stop-opacity="0"/>
</radialGradient>
<radialGradient id="paint30_radial_106_31" cx="0" cy="0" r="1" gradientUnits="userSpaceOnUse" gradientTransform="translate(863.05 372.388) rotate(90) scale(233.042 917.05)">
<stop offset="0.697917" stop-color="white"/>
<stop offset="1" stop-color="white" stop-opacity="0"/>
</radialGradient>
<radialGradient id="paint31_radial_106_31" cx="0" cy="0" r="1" gradientUnits="userSpaceOnUse" gradientTransform="translate(863.839 384.826) rotate(90) scale(240.786 917.839)">
<stop offset="0.697917" stop-color="white"/>
<stop offset="1" stop-color="white" stop-opacity="0"/>
</radialGradient>
<radialGradient id="paint32_radial_106_31" cx="0" cy="0" r="1" gradientUnits="userSpaceOnUse" gradientTransform="translate(864.582 397.264) rotate(90) scale(248.538 918.582)">
<stop offset="0.697917" stop-color="white"/>
<stop offset="1" stop-color="white" stop-opacity="0"/>
</radialGradient>
</defs>
</svg>
